<?xml version="1.0" encoding="UTF-8"?>
<svg width="397px" height="67px" viewBox="0 0 397 67" version="1.1" xmlns="http://www.w3.org/2000/svg" xmlns:xlink="http://www.w3.org/1999/xlink">
    <!-- Generator: Sketch 57.1 (83088) - https://sketch.com -->
    <title>Group</title>
    <desc>Created with Sketch.</desc>
    <g id="Page-1" stroke="none" stroke-width="1" fill="none" fill-rule="evenodd">
        <g id="Supsafari">
            <g id="Group" transform="translate(0.000000, 0.834000)">
                <polygon id="Fill-1" fill="#E26551" points="0 65.444 396.854 65.444 396.854 0 0 0"></polygon>
                <path d="M14.439,49.403 C11.979,47.443 10.749,44.783 10.749,41.423 C10.749,41.063 10.788,40.523 10.869,39.803 L10.989,38.783 C11.109,38.103 11.489,37.763 12.129,37.763 L18.249,37.763 C18.569,37.763 18.809,37.833 18.969,37.973 C19.128,38.113 19.188,38.303 19.149,38.543 L19.029,39.383 C18.829,40.983 19.369,42.333 20.649,43.432 C21.929,44.533 23.709,45.083 25.989,45.083 C28.188,45.083 29.859,44.583 30.999,43.583 C32.139,42.584 32.709,41.363 32.709,39.923 C32.709,39.044 32.418,38.303 31.839,37.703 C31.259,37.103 30.479,36.573 29.499,36.113 C28.519,35.653 26.988,35.003 24.909,34.163 C22.548,33.283 20.579,32.414 18.999,31.553 C17.418,30.693 16.079,29.543 14.979,28.103 C13.878,26.663 13.329,24.884 13.329,22.763 C13.329,22.483 13.369,21.983 13.449,21.263 C13.889,17.624 15.549,14.733 18.429,12.593 C21.309,10.454 24.869,9.383 29.109,9.383 C31.869,9.383 34.299,9.853 36.399,10.793 C38.499,11.733 40.119,13.054 41.259,14.753 C42.399,16.454 42.969,18.443 42.969,20.723 C42.969,21.044 42.929,21.563 42.849,22.283 L42.729,22.883 C42.648,23.563 42.289,23.903 41.649,23.903 L35.529,23.903 C34.849,23.903 34.548,23.703 34.629,23.303 L34.689,22.703 C34.889,21.023 34.398,19.594 33.219,18.413 C32.039,17.233 30.269,16.643 27.909,16.643 C25.909,16.643 24.339,17.093 23.199,17.993 C22.059,18.893 21.489,20.144 21.489,21.743 C21.489,22.583 21.769,23.313 22.329,23.933 C22.889,24.554 23.718,25.133 24.819,25.673 C25.919,26.213 27.569,26.884 29.769,27.683 C32.289,28.684 34.229,29.533 35.589,30.233 C36.949,30.934 38.189,31.973 39.309,33.353 C40.429,34.733 40.989,36.483 40.989,38.603 C40.989,38.924 40.949,39.443 40.869,40.163 C40.589,42.603 39.729,44.744 38.289,46.583 C36.849,48.424 34.938,49.844 32.559,50.843 C30.179,51.844 27.489,52.343 24.489,52.343 C20.249,52.343 16.899,51.363 14.439,49.403" id="Fill-3" fill="#FFFFFE"></path>
                <path d="M51.878,48.983 C49.457,46.743 48.249,43.743 48.249,39.983 C48.249,39.584 48.288,38.903 48.368,37.943 L51.729,10.883 C51.808,10.203 52.168,9.863 52.809,9.863 L59.048,9.863 C59.728,9.863 60.028,10.203 59.948,10.883 L56.588,38.003 C56.548,38.283 56.528,38.663 56.528,39.143 C56.528,40.943 57.068,42.383 58.148,43.463 C59.229,44.543 60.707,45.083 62.588,45.083 C64.628,45.083 66.358,44.434 67.778,43.133 C69.198,41.834 70.048,40.124 70.329,38.003 L73.628,10.883 C73.749,10.203 74.128,9.863 74.769,9.863 L81.008,9.863 C81.688,9.863 81.968,10.203 81.848,10.883 L78.548,37.943 C78.188,40.783 77.248,43.293 75.729,45.473 C74.207,47.653 72.238,49.343 69.818,50.543 C67.398,51.743 64.688,52.343 61.688,52.343 C57.568,52.343 54.298,51.224 51.878,48.983" id="Fill-4" fill="#FFFFFE"></path>
                <path d="M108.608,26.873 C109.888,25.613 110.528,24.023 110.528,22.103 C110.528,20.583 110.048,19.373 109.088,18.473 C108.128,17.573 106.847,17.123 105.248,17.123 L97.928,17.123 C97.727,17.123 97.587,17.243 97.508,17.483 L96.188,28.403 C96.147,28.643 96.247,28.763 96.488,28.763 L103.808,28.763 C105.728,28.763 107.327,28.133 108.608,26.873 Z M115.658,12.773 C117.717,14.753 118.748,17.423 118.748,20.783 C118.748,21.184 118.707,21.863 118.628,22.823 C118.307,25.343 117.477,27.563 116.138,29.483 C114.797,31.403 113.067,32.894 110.948,33.953 C108.827,35.014 106.467,35.543 103.868,35.543 L95.648,35.543 C95.447,35.543 95.308,35.663 95.228,35.903 L93.428,50.843 C93.308,51.523 92.927,51.863 92.288,51.863 L86.048,51.863 C85.408,51.863 85.127,51.523 85.208,50.843 L90.128,10.823 C90.208,10.144 90.567,9.803 91.208,9.803 L107.348,9.803 C110.828,9.803 113.597,10.793 115.658,12.773 L115.658,12.773 Z" id="Fill-5" fill="#FFFFFE"></path>
                <path d="M120.188,36.743 L120.788,31.523 C120.908,30.844 121.288,30.503 121.928,30.503 L140.348,30.503 C141.028,30.503 141.328,30.844 141.248,31.523 L140.588,36.743 C140.507,37.424 140.147,37.763 139.508,37.763 L121.028,37.763 C120.348,37.763 120.068,37.424 120.188,36.743" id="Fill-6" fill="#FFFFFE"></path>
                <path d="M148.508,50.093 C146.387,48.634 145.328,46.724 145.328,44.363 C145.328,43.924 145.347,43.583 145.388,43.343 L145.448,43.043 C145.527,42.363 145.887,42.023 146.528,42.023 L152.408,42.023 C153.047,42.023 153.368,42.143 153.368,42.383 L153.308,42.803 C153.187,43.684 153.557,44.434 154.417,45.053 C155.277,45.674 156.428,45.983 157.868,45.983 C159.268,45.983 160.407,45.693 161.288,45.113 C162.167,44.533 162.608,43.804 162.608,42.923 C162.608,42.283 162.267,41.793 161.587,41.453 C160.907,41.113 159.867,40.763 158.468,40.403 C156.707,39.884 155.348,39.424 154.388,39.023 C152.227,38.224 150.497,37.264 149.198,36.143 C147.897,35.023 147.248,33.443 147.248,31.403 C147.248,29.243 147.827,27.344 148.988,25.703 C150.147,24.063 151.748,22.804 153.788,21.923 C155.828,21.044 158.127,20.603 160.688,20.603 C164.167,20.603 166.927,21.394 168.967,22.973 C171.007,24.554 172.028,26.644 172.028,29.243 C172.028,29.723 172.007,30.083 171.967,30.323 C171.927,30.523 171.807,30.693 171.608,30.833 C171.407,30.974 171.167,31.043 170.888,31.043 L165.188,31.043 C164.507,31.043 164.187,30.923 164.228,30.683 L164.288,30.323 C164.368,29.443 164.027,28.703 163.268,28.103 C162.507,27.503 161.408,27.203 159.968,27.203 C158.607,27.203 157.467,27.464 156.548,27.983 C155.627,28.503 155.167,29.224 155.167,30.143 C155.167,30.863 155.547,31.413 156.308,31.793 C157.067,32.174 158.308,32.563 160.028,32.963 C160.427,33.083 160.887,33.213 161.408,33.353 C161.927,33.494 162.488,33.663 163.087,33.863 C165.527,34.623 167.457,35.594 168.877,36.773 C170.297,37.953 171.007,39.603 171.007,41.723 C171.007,42.203 170.987,42.584 170.948,42.863 C170.547,45.823 169.107,48.134 166.627,49.793 C164.147,51.453 160.988,52.283 157.148,52.283 C153.507,52.283 150.627,51.554 148.508,50.093" id="Fill-7" fill="#FFFFFE"></path>
                <path d="M196.206,36.443 C196.327,35.523 196.387,34.684 196.387,33.923 C196.387,32.403 196.186,31.184 195.787,30.263 C194.986,28.703 193.766,27.923 192.126,27.923 C190.327,27.923 188.887,28.684 187.807,30.203 C186.646,31.804 185.926,33.903 185.647,36.503 C185.566,37.023 185.527,37.743 185.527,38.663 C185.527,40.223 185.726,41.463 186.126,42.383 C186.447,43.223 186.946,43.863 187.626,44.303 C188.306,44.744 189.126,44.963 190.086,44.963 C191.767,44.963 193.186,44.103 194.347,42.383 C195.307,40.863 195.926,38.884 196.206,36.443 Z M199.147,21.023 L205.387,21.023 C206.067,21.023 206.367,21.363 206.287,22.043 L202.747,50.843 C202.626,51.523 202.247,51.863 201.607,51.863 L195.367,51.863 C195.046,51.863 194.817,51.773 194.677,51.593 C194.537,51.413 194.487,51.164 194.527,50.843 L194.706,49.223 C194.747,49.063 194.716,48.974 194.617,48.953 C194.516,48.934 194.426,48.983 194.347,49.103 C192.466,51.263 190.107,52.343 187.267,52.343 C184.666,52.343 182.446,51.543 180.607,49.943 C178.766,48.344 177.607,46.203 177.126,43.523 C176.887,42.363 176.767,41.163 176.767,39.923 C176.767,39.123 176.846,37.924 177.006,36.323 C177.406,33.323 178.086,30.844 179.046,28.883 C180.247,26.323 181.916,24.283 184.057,22.763 C186.196,21.243 188.586,20.483 191.227,20.483 C194.107,20.483 196.186,21.464 197.467,23.423 C197.546,23.543 197.636,23.583 197.737,23.543 C197.836,23.504 197.887,23.403 197.887,23.243 L198.067,22.043 C198.147,21.363 198.506,21.023 199.147,21.023 L199.147,21.023 Z" id="Fill-8" fill="#FFFFFE"></path>
                <path d="M231.846,21.983 L231.246,27.083 C231.125,27.764 230.746,28.103 230.106,28.103 L224.826,28.103 C224.625,28.103 224.486,28.223 224.406,28.463 L221.646,50.843 C221.565,51.523 221.206,51.863 220.566,51.863 L214.326,51.863 C213.645,51.863 213.366,51.523 213.486,50.843 L216.186,28.463 C216.265,28.223 216.165,28.103 215.886,28.103 L212.826,28.103 C212.145,28.103 211.866,27.764 211.986,27.083 L212.585,21.983 C212.665,21.304 213.045,20.963 213.726,20.963 L216.786,20.963 C217.026,20.963 217.165,20.843 217.206,20.603 L217.326,19.343 C217.646,16.863 218.256,14.933 219.156,13.553 C220.056,12.173 221.366,11.193 223.085,10.613 C224.805,10.033 227.125,9.783 230.046,9.863 L231.966,9.863 C232.605,9.863 232.885,10.203 232.806,10.883 L232.266,15.143 C232.185,15.823 231.826,16.163 231.186,16.163 L229.566,16.163 C228.165,16.203 227.175,16.493 226.596,17.033 C226.015,17.573 225.645,18.563 225.486,20.003 L225.366,20.603 C225.366,20.843 225.465,20.963 225.665,20.963 L231.006,20.963 C231.645,20.963 231.925,21.304 231.846,21.983" id="Fill-9" fill="#FFFFFE"></path>
                <path d="M253.386,36.443 C253.506,35.523 253.567,34.684 253.567,33.923 C253.567,32.403 253.366,31.184 252.966,30.263 C252.165,28.703 250.946,27.923 249.306,27.923 C247.506,27.923 246.067,28.684 244.987,30.203 C243.826,31.804 243.106,33.903 242.827,36.503 C242.746,37.023 242.706,37.743 242.706,38.663 C242.706,40.223 242.906,41.463 243.306,42.383 C243.626,43.223 244.125,43.863 244.806,44.303 C245.486,44.744 246.306,44.963 247.266,44.963 C248.947,44.963 250.366,44.103 251.527,42.383 C252.487,40.863 253.106,38.884 253.386,36.443 Z M256.327,21.023 L262.567,21.023 C263.247,21.023 263.546,21.363 263.466,22.043 L259.926,50.843 C259.806,51.523 259.426,51.863 258.787,51.863 L252.546,51.863 C252.226,51.863 251.997,51.773 251.857,51.593 C251.716,51.413 251.666,51.164 251.706,50.843 L251.886,49.223 C251.926,49.063 251.896,48.974 251.796,48.953 C251.696,48.934 251.606,48.983 251.527,49.103 C249.646,51.263 247.287,52.343 244.447,52.343 C241.846,52.343 239.625,51.543 237.787,49.943 C235.946,48.344 234.787,46.203 234.306,43.523 C234.067,42.363 233.947,41.163 233.947,39.923 C233.947,39.123 234.026,37.924 234.186,36.323 C234.585,33.323 235.266,30.844 236.226,28.883 C237.426,26.323 239.096,24.283 241.237,22.763 C243.375,21.243 245.766,20.483 248.407,20.483 C251.287,20.483 253.366,21.464 254.647,23.423 C254.726,23.543 254.816,23.583 254.916,23.543 C255.016,23.504 255.067,23.403 255.067,23.243 L255.247,22.043 C255.327,21.363 255.686,21.023 256.327,21.023 L256.327,21.023 Z" id="Fill-10" fill="#FFFFFE"></path>
                <path d="M289.327,21.323 C289.646,21.483 289.806,21.724 289.806,22.043 C289.806,22.163 289.766,22.343 289.687,22.583 L287.827,28.883 C287.746,29.204 287.617,29.414 287.437,29.513 C287.256,29.613 286.987,29.624 286.626,29.543 C285.986,29.384 285.426,29.303 284.947,29.303 C284.666,29.303 284.206,29.344 283.567,29.423 C282.165,29.543 280.916,30.083 279.817,31.043 C278.716,32.003 278.086,33.243 277.926,34.763 L275.947,50.843 C275.866,51.523 275.486,51.863 274.806,51.863 L268.626,51.863 C267.946,51.863 267.646,51.523 267.727,50.843 L271.266,22.043 C271.346,21.363 271.726,21.023 272.407,21.023 L278.586,21.023 C279.266,21.023 279.566,21.363 279.487,22.043 L279.247,23.903 C279.207,24.063 279.226,24.164 279.306,24.203 C279.386,24.243 279.487,24.203 279.607,24.083 C281.446,21.764 283.687,20.603 286.327,20.603 C287.566,20.603 288.566,20.843 289.327,21.323" id="Fill-11" fill="#FFFFFE"></path>
                <path d="M297.186,16.913 C296.385,16.133 295.986,15.103 295.986,13.823 C295.986,12.143 296.526,10.754 297.606,9.653 C298.686,8.554 300.026,8.003 301.625,8.003 C303.026,8.003 304.125,8.384 304.925,9.143 C305.725,9.903 306.125,10.943 306.125,12.263 C306.125,13.943 305.585,15.333 304.505,16.433 C303.425,17.533 302.065,18.083 300.425,18.083 C299.065,18.083 297.986,17.693 297.186,16.913 Z M292.326,50.843 L295.866,22.043 C295.946,21.363 296.305,21.023 296.946,21.023 L303.186,21.023 C303.866,21.023 304.165,21.363 304.085,22.043 L300.545,50.843 C300.425,51.523 300.045,51.863 299.406,51.863 L293.165,51.863 C292.526,51.863 292.245,51.523 292.326,50.843 L292.326,50.843 Z" id="Fill-12" fill="#FFFFFE"></path>
                <path d="M311.496,50.813 C310.995,50.273 310.746,49.603 310.746,48.803 C310.746,47.884 311.115,47.073 311.856,46.373 C312.595,45.674 313.406,45.323 314.286,45.323 C315.085,45.323 315.755,45.593 316.295,46.133 C316.835,46.673 317.106,47.344 317.106,48.143 C317.106,49.063 316.735,49.874 315.996,50.573 C315.255,51.273 314.425,51.623 313.505,51.623 C312.665,51.623 311.996,51.353 311.496,50.813" id="Fill-13" fill="#FFFFFE"></path>
                <path d="M350.285,23.573 C351.884,25.153 352.685,27.263 352.685,29.903 C352.685,30.224 352.645,30.743 352.565,31.463 L350.105,51.143 C350.105,51.344 350.024,51.514 349.865,51.653 C349.705,51.794 349.525,51.863 349.325,51.863 L347.645,51.863 C347.445,51.863 347.285,51.794 347.165,51.653 C347.045,51.514 347.004,51.344 347.045,51.143 L349.385,32.063 C349.424,31.783 349.445,31.363 349.445,30.803 C349.445,28.763 348.845,27.123 347.645,25.883 C346.445,24.644 344.844,24.023 342.845,24.023 C340.525,24.023 338.555,24.753 336.935,26.213 C335.315,27.674 334.344,29.583 334.025,31.943 L331.685,51.143 C331.645,51.344 331.554,51.514 331.415,51.653 C331.274,51.794 331.105,51.863 330.905,51.863 L329.225,51.863 C328.785,51.863 328.565,51.623 328.565,51.143 L332.105,22.343 C332.144,22.144 332.245,21.974 332.405,21.833 C332.564,21.693 332.745,21.623 332.945,21.623 L334.624,21.623 C334.825,21.623 334.985,21.693 335.105,21.833 C335.225,21.974 335.264,22.144 335.225,22.343 L334.865,25.163 C334.865,25.403 334.945,25.443 335.105,25.283 C336.104,23.963 337.355,22.953 338.855,22.253 C340.355,21.554 342.025,21.203 343.865,21.203 C346.544,21.203 348.685,21.993 350.285,23.573" id="Fill-14" fill="#FFFFFE"></path>
                <path d="M377.974,47.783 C379.554,46.623 380.684,45.063 381.365,43.103 C381.764,41.903 382.145,39.783 382.504,36.743 C382.825,34.264 382.985,32.443 382.985,31.283 C382.985,29.123 382.314,27.363 380.974,26.003 C379.634,24.644 377.844,23.963 375.605,23.963 C373.524,23.963 371.694,24.543 370.115,25.703 C368.534,26.863 367.404,28.424 366.724,30.383 C366.284,31.544 365.904,33.663 365.584,36.743 C365.264,39.103 365.105,40.863 365.105,42.023 C365.105,44.303 365.764,46.124 367.084,47.483 C368.405,48.844 370.205,49.523 372.485,49.523 C374.564,49.523 376.394,48.943 377.974,47.783 Z M365.405,50.153 C363.644,48.693 362.584,46.703 362.224,44.182 C362.105,43.463 362.044,42.663 362.044,41.783 C362.044,40.623 362.184,38.924 362.464,36.682 C362.825,33.644 363.325,31.163 363.964,29.243 C364.964,26.764 366.524,24.794 368.645,23.333 C370.764,21.873 373.205,21.143 375.964,21.143 C378.724,21.143 380.995,21.884 382.775,23.363 C384.554,24.844 385.604,26.804 385.924,29.243 C386.044,29.963 386.105,30.724 386.105,31.523 C386.105,32.723 385.964,34.443 385.684,36.682 C385.244,40.083 384.724,42.584 384.124,44.182 C383.165,46.664 381.614,48.644 379.474,50.123 C377.334,51.603 374.904,52.343 372.184,52.343 C369.424,52.343 367.165,51.613 365.405,50.153 L365.405,50.153 Z" id="Fill-15" fill="#FFFFFE"></path>
            </g>
        </g>
    </g>
</svg>