<?xml version="1.0" encoding="UTF-8"?>
<svg width="377px" height="45px" viewBox="0 0 377 45" version="1.1" xmlns="http://www.w3.org/2000/svg" xmlns:xlink="http://www.w3.org/1999/xlink">
    <!-- Generator: Sketch 57.1 (83088) - https://sketch.com -->
    <title>Group</title>
    <desc>Created with Sketch.</desc>
    <g id="Page-1" stroke="none" stroke-width="1" fill="none" fill-rule="evenodd">
        <g id="Supsafari" transform="translate(-45.000000, -66.000000)" fill="#2D2D2D">
            <g id="Group" transform="translate(45.000000, 66.000000)">
                <path d="M4.439,41.403 C1.979,39.443 0.749,36.783 0.749,33.423 C0.749,33.063 0.788,32.523 0.869,31.803 L0.989,30.783 C1.109,30.103 1.489,29.763 2.129,29.763 L8.249,29.763 C8.569,29.763 8.809,29.833 8.969,29.973 C9.128,30.113 9.188,30.303 9.149,30.543 L9.029,31.383 C8.829,32.983 9.369,34.333 10.649,35.432 C11.929,36.533 13.709,37.083 15.989,37.083 C18.188,37.083 19.859,36.583 20.999,35.583 C22.139,34.584 22.709,33.363 22.709,31.923 C22.709,31.044 22.418,30.303 21.839,29.703 C21.259,29.103 20.479,28.573 19.499,28.113 C18.519,27.653 16.988,27.003 14.909,26.163 C12.548,25.283 10.579,24.414 8.999,23.553 C7.418,22.693 6.079,21.543 4.979,20.103 C3.878,18.663 3.329,16.884 3.329,14.763 C3.329,14.483 3.369,13.983 3.449,13.263 C3.889,9.624 5.549,6.733 8.429,4.593 C11.309,2.454 14.869,1.383 19.109,1.383 C21.869,1.383 24.299,1.853 26.399,2.793 C28.499,3.733 30.119,5.054 31.259,6.753 C32.399,8.454 32.969,10.443 32.969,12.723 C32.969,13.044 32.929,13.563 32.849,14.283 L32.729,14.883 C32.648,15.563 32.289,15.903 31.649,15.903 L25.529,15.903 C24.849,15.903 24.548,15.703 24.629,15.303 L24.689,14.703 C24.889,13.023 24.398,11.594 23.219,10.413 C22.039,9.233 20.269,8.643 17.909,8.643 C15.909,8.643 14.339,9.093 13.199,9.993 C12.059,10.893 11.489,12.144 11.489,13.743 C11.489,14.583 11.769,15.313 12.329,15.933 C12.889,16.554 13.718,17.133 14.819,17.673 C15.919,18.213 17.569,18.884 19.769,19.683 C22.289,20.684 24.229,21.533 25.589,22.233 C26.949,22.934 28.189,23.973 29.309,25.353 C30.429,26.733 30.989,28.483 30.989,30.603 C30.989,30.924 30.949,31.443 30.869,32.163 C30.589,34.603 29.729,36.744 28.289,38.583 C26.849,40.424 24.938,41.844 22.559,42.843 C20.179,43.844 17.489,44.343 14.489,44.343 C10.249,44.343 6.899,43.363 4.439,41.403" id="Fill-3"></path>
                <path d="M41.878,40.983 C39.457,38.743 38.249,35.743 38.249,31.983 C38.249,31.584 38.288,30.903 38.368,29.943 L41.729,2.883 C41.808,2.203 42.168,1.863 42.809,1.863 L49.048,1.863 C49.728,1.863 50.028,2.203 49.948,2.883 L46.588,30.003 C46.548,30.283 46.528,30.663 46.528,31.143 C46.528,32.943 47.068,34.383 48.148,35.463 C49.229,36.543 50.707,37.083 52.588,37.083 C54.628,37.083 56.358,36.434 57.778,35.133 C59.198,33.834 60.048,32.124 60.329,30.003 L63.628,2.883 C63.749,2.203 64.128,1.863 64.769,1.863 L71.008,1.863 C71.688,1.863 71.968,2.203 71.848,2.883 L68.548,29.943 C68.188,32.783 67.248,35.293 65.729,37.473 C64.207,39.653 62.238,41.343 59.818,42.543 C57.398,43.743 54.688,44.343 51.688,44.343 C47.568,44.343 44.298,43.224 41.878,40.983" id="Fill-4"></path>
                <path d="M98.608,18.873 C99.888,17.613 100.528,16.023 100.528,14.103 C100.528,12.583 100.048,11.373 99.088,10.473 C98.128,9.573 96.847,9.123 95.248,9.123 L87.928,9.123 C87.727,9.123 87.587,9.243 87.508,9.483 L86.188,20.403 C86.147,20.643 86.247,20.763 86.488,20.763 L93.808,20.763 C95.728,20.763 97.327,20.133 98.608,18.873 Z M105.658,4.773 C107.717,6.753 108.748,9.423 108.748,12.783 C108.748,13.184 108.707,13.863 108.628,14.823 C108.307,17.343 107.477,19.563 106.138,21.483 C104.797,23.403 103.067,24.894 100.948,25.953 C98.827,27.014 96.467,27.543 93.868,27.543 L85.648,27.543 C85.447,27.543 85.308,27.663 85.228,27.903 L83.428,42.843 C83.308,43.523 82.927,43.863 82.288,43.863 L76.048,43.863 C75.408,43.863 75.127,43.523 75.208,42.843 L80.128,2.823 C80.208,2.144 80.567,1.803 81.208,1.803 L97.348,1.803 C100.828,1.803 103.597,2.793 105.658,4.773 L105.658,4.773 Z" id="Fill-5"></path>
                <path d="M110.188,28.743 L110.788,23.523 C110.908,22.844 111.288,22.503 111.928,22.503 L130.348,22.503 C131.028,22.503 131.328,22.844 131.248,23.523 L130.588,28.743 C130.507,29.424 130.147,29.763 129.508,29.763 L111.028,29.763 C110.348,29.763 110.068,29.424 110.188,28.743" id="Fill-6"></path>
                <path d="M138.508,42.093 C136.387,40.634 135.328,38.724 135.328,36.363 C135.328,35.924 135.347,35.583 135.388,35.343 L135.448,35.043 C135.527,34.363 135.887,34.023 136.528,34.023 L142.408,34.023 C143.047,34.023 143.368,34.143 143.368,34.383 L143.308,34.803 C143.187,35.684 143.557,36.434 144.417,37.053 C145.277,37.674 146.428,37.983 147.868,37.983 C149.268,37.983 150.407,37.693 151.288,37.113 C152.167,36.533 152.608,35.804 152.608,34.923 C152.608,34.283 152.267,33.793 151.587,33.453 C150.907,33.113 149.867,32.763 148.468,32.403 C146.707,31.884 145.348,31.424 144.388,31.023 C142.227,30.224 140.497,29.264 139.198,28.143 C137.897,27.023 137.248,25.443 137.248,23.403 C137.248,21.243 137.827,19.344 138.988,17.703 C140.147,16.063 141.748,14.804 143.788,13.923 C145.828,13.044 148.127,12.603 150.688,12.603 C154.167,12.603 156.927,13.394 158.967,14.973 C161.007,16.554 162.028,18.644 162.028,21.243 C162.028,21.723 162.007,22.083 161.967,22.323 C161.927,22.523 161.807,22.693 161.608,22.833 C161.407,22.974 161.167,23.043 160.888,23.043 L155.188,23.043 C154.507,23.043 154.187,22.923 154.228,22.683 L154.288,22.323 C154.368,21.443 154.027,20.703 153.268,20.103 C152.507,19.503 151.408,19.203 149.968,19.203 C148.607,19.203 147.467,19.464 146.548,19.983 C145.627,20.503 145.167,21.224 145.167,22.143 C145.167,22.863 145.547,23.413 146.308,23.793 C147.067,24.174 148.308,24.563 150.028,24.963 C150.427,25.083 150.887,25.213 151.408,25.353 C151.927,25.494 152.488,25.663 153.087,25.863 C155.527,26.623 157.457,27.594 158.877,28.773 C160.297,29.953 161.007,31.603 161.007,33.723 C161.007,34.203 160.987,34.584 160.948,34.863 C160.547,37.823 159.107,40.134 156.627,41.793 C154.147,43.453 150.988,44.283 147.148,44.283 C143.507,44.283 140.627,43.554 138.508,42.093" id="Fill-7"></path>
                <path d="M186.206,28.443 C186.327,27.523 186.387,26.684 186.387,25.923 C186.387,24.403 186.186,23.184 185.787,22.263 C184.986,20.703 183.766,19.923 182.126,19.923 C180.327,19.923 178.887,20.684 177.807,22.203 C176.646,23.804 175.926,25.903 175.647,28.503 C175.566,29.023 175.527,29.743 175.527,30.663 C175.527,32.223 175.726,33.463 176.126,34.383 C176.447,35.223 176.946,35.863 177.626,36.303 C178.306,36.744 179.126,36.963 180.086,36.963 C181.767,36.963 183.186,36.103 184.347,34.383 C185.307,32.863 185.926,30.884 186.206,28.443 Z M189.147,13.023 L195.387,13.023 C196.067,13.023 196.367,13.363 196.287,14.043 L192.747,42.843 C192.626,43.523 192.247,43.863 191.607,43.863 L185.367,43.863 C185.046,43.863 184.817,43.773 184.677,43.593 C184.537,43.413 184.487,43.164 184.527,42.843 L184.706,41.223 C184.747,41.063 184.716,40.974 184.617,40.953 C184.516,40.934 184.426,40.983 184.347,41.103 C182.466,43.263 180.107,44.343 177.267,44.343 C174.666,44.343 172.446,43.543 170.607,41.943 C168.766,40.344 167.607,38.203 167.126,35.523 C166.887,34.363 166.767,33.163 166.767,31.923 C166.767,31.123 166.846,29.924 167.006,28.323 C167.406,25.323 168.086,22.844 169.046,20.883 C170.247,18.323 171.916,16.283 174.057,14.763 C176.196,13.243 178.586,12.483 181.227,12.483 C184.107,12.483 186.186,13.464 187.467,15.423 C187.546,15.543 187.636,15.583 187.737,15.543 C187.836,15.504 187.887,15.403 187.887,15.243 L188.067,14.043 C188.147,13.363 188.506,13.023 189.147,13.023 L189.147,13.023 Z" id="Fill-8"></path>
                <path d="M221.846,13.983 L221.246,19.083 C221.125,19.764 220.746,20.103 220.106,20.103 L214.826,20.103 C214.625,20.103 214.486,20.223 214.406,20.463 L211.646,42.843 C211.565,43.523 211.206,43.863 210.566,43.863 L204.326,43.863 C203.645,43.863 203.366,43.523 203.486,42.843 L206.186,20.463 C206.265,20.223 206.165,20.103 205.886,20.103 L202.826,20.103 C202.145,20.103 201.866,19.764 201.986,19.083 L202.585,13.983 C202.665,13.304 203.045,12.963 203.726,12.963 L206.786,12.963 C207.026,12.963 207.165,12.843 207.206,12.603 L207.326,11.343 C207.646,8.863 208.256,6.933 209.156,5.553 C210.056,4.173 211.366,3.193 213.085,2.613 C214.805,2.033 217.125,1.783 220.046,1.863 L221.966,1.863 C222.605,1.863 222.885,2.203 222.806,2.883 L222.266,7.143 C222.185,7.823 221.826,8.163 221.186,8.163 L219.566,8.163 C218.165,8.203 217.175,8.493 216.596,9.033 C216.015,9.573 215.645,10.563 215.486,12.003 L215.366,12.603 C215.366,12.843 215.465,12.963 215.665,12.963 L221.006,12.963 C221.645,12.963 221.925,13.304 221.846,13.983" id="Fill-9"></path>
                <path d="M243.386,28.443 C243.506,27.523 243.567,26.684 243.567,25.923 C243.567,24.403 243.366,23.184 242.966,22.263 C242.165,20.703 240.946,19.923 239.306,19.923 C237.506,19.923 236.067,20.684 234.987,22.203 C233.826,23.804 233.106,25.903 232.827,28.503 C232.746,29.023 232.706,29.743 232.706,30.663 C232.706,32.223 232.906,33.463 233.306,34.383 C233.626,35.223 234.125,35.863 234.806,36.303 C235.486,36.744 236.306,36.963 237.266,36.963 C238.947,36.963 240.366,36.103 241.527,34.383 C242.487,32.863 243.106,30.884 243.386,28.443 Z M246.327,13.023 L252.567,13.023 C253.247,13.023 253.546,13.363 253.466,14.043 L249.926,42.843 C249.806,43.523 249.426,43.863 248.787,43.863 L242.546,43.863 C242.226,43.863 241.997,43.773 241.857,43.593 C241.716,43.413 241.666,43.164 241.706,42.843 L241.886,41.223 C241.926,41.063 241.896,40.974 241.796,40.953 C241.696,40.934 241.606,40.983 241.527,41.103 C239.646,43.263 237.287,44.343 234.447,44.343 C231.846,44.343 229.625,43.543 227.787,41.943 C225.946,40.344 224.787,38.203 224.306,35.523 C224.067,34.363 223.947,33.163 223.947,31.923 C223.947,31.123 224.026,29.924 224.186,28.323 C224.585,25.323 225.266,22.844 226.226,20.883 C227.426,18.323 229.096,16.283 231.237,14.763 C233.375,13.243 235.766,12.483 238.407,12.483 C241.287,12.483 243.366,13.464 244.647,15.423 C244.726,15.543 244.816,15.583 244.916,15.543 C245.016,15.504 245.067,15.403 245.067,15.243 L245.247,14.043 C245.327,13.363 245.686,13.023 246.327,13.023 L246.327,13.023 Z" id="Fill-10"></path>
                <path d="M279.327,13.323 C279.646,13.483 279.806,13.724 279.806,14.043 C279.806,14.163 279.766,14.343 279.687,14.583 L277.827,20.883 C277.746,21.204 277.617,21.414 277.437,21.513 C277.256,21.613 276.987,21.624 276.626,21.543 C275.986,21.384 275.426,21.303 274.947,21.303 C274.666,21.303 274.206,21.344 273.567,21.423 C272.165,21.543 270.916,22.083 269.817,23.043 C268.716,24.003 268.086,25.243 267.926,26.763 L265.947,42.843 C265.866,43.523 265.486,43.863 264.806,43.863 L258.626,43.863 C257.946,43.863 257.646,43.523 257.727,42.843 L261.266,14.043 C261.346,13.363 261.726,13.023 262.407,13.023 L268.586,13.023 C269.266,13.023 269.566,13.363 269.487,14.043 L269.247,15.903 C269.207,16.063 269.226,16.164 269.306,16.203 C269.386,16.243 269.487,16.203 269.607,16.083 C271.446,13.764 273.687,12.603 276.327,12.603 C277.566,12.603 278.566,12.843 279.327,13.323" id="Fill-11"></path>
                <path d="M287.186,8.913 C286.385,8.133 285.986,7.103 285.986,5.823 C285.986,4.143 286.526,2.754 287.606,1.653 C288.686,0.554 290.026,0.003 291.625,0.003 C293.026,0.003 294.125,0.384 294.925,1.143 C295.725,1.903 296.125,2.943 296.125,4.263 C296.125,5.943 295.585,7.333 294.505,8.433 C293.425,9.533 292.065,10.083 290.425,10.083 C289.065,10.083 287.986,9.693 287.186,8.913 Z M282.326,42.843 L285.866,14.043 C285.946,13.363 286.305,13.023 286.946,13.023 L293.186,13.023 C293.866,13.023 294.165,13.363 294.085,14.043 L290.545,42.843 C290.425,43.523 290.045,43.863 289.406,43.863 L283.165,43.863 C282.526,43.863 282.245,43.523 282.326,42.843 L282.326,42.843 Z" id="Fill-12"></path>
                <path d="M301.496,42.813 C300.995,42.273 300.746,41.603 300.746,40.803 C300.746,39.884 301.115,39.073 301.856,38.373 C302.595,37.674 303.406,37.323 304.286,37.323 C305.085,37.323 305.755,37.593 306.295,38.133 C306.835,38.673 307.106,39.344 307.106,40.143 C307.106,41.063 306.735,41.874 305.996,42.573 C305.255,43.273 304.425,43.623 303.505,43.623 C302.665,43.623 301.996,43.353 301.496,42.813" id="Fill-13"></path>
                <path d="M340.285,15.573 C341.884,17.153 342.685,19.263 342.685,21.903 C342.685,22.224 342.645,22.743 342.565,23.463 L340.105,43.143 C340.105,43.344 340.024,43.514 339.865,43.653 C339.705,43.794 339.525,43.863 339.325,43.863 L337.645,43.863 C337.445,43.863 337.285,43.794 337.165,43.653 C337.045,43.514 337.004,43.344 337.045,43.143 L339.385,24.063 C339.424,23.783 339.445,23.363 339.445,22.803 C339.445,20.763 338.845,19.123 337.645,17.883 C336.445,16.644 334.844,16.023 332.845,16.023 C330.525,16.023 328.555,16.753 326.935,18.213 C325.315,19.674 324.344,21.583 324.025,23.943 L321.685,43.143 C321.645,43.344 321.554,43.514 321.415,43.653 C321.274,43.794 321.105,43.863 320.905,43.863 L319.225,43.863 C318.785,43.863 318.565,43.623 318.565,43.143 L322.105,14.343 C322.144,14.144 322.245,13.974 322.405,13.833 C322.564,13.693 322.745,13.623 322.945,13.623 L324.624,13.623 C324.825,13.623 324.985,13.693 325.105,13.833 C325.225,13.974 325.264,14.144 325.225,14.343 L324.865,17.163 C324.865,17.403 324.945,17.443 325.105,17.283 C326.104,15.963 327.355,14.953 328.855,14.253 C330.355,13.554 332.025,13.203 333.865,13.203 C336.544,13.203 338.685,13.993 340.285,15.573" id="Fill-14"></path>
                <path d="M367.974,39.783 C369.554,38.623 370.684,37.063 371.365,35.103 C371.764,33.903 372.145,31.783 372.504,28.743 C372.825,26.264 372.985,24.443 372.985,23.283 C372.985,21.123 372.314,19.363 370.974,18.003 C369.634,16.644 367.844,15.963 365.605,15.963 C363.524,15.963 361.694,16.543 360.115,17.703 C358.534,18.863 357.404,20.424 356.724,22.383 C356.284,23.544 355.904,25.663 355.584,28.743 C355.264,31.103 355.105,32.863 355.105,34.023 C355.105,36.303 355.764,38.124 357.084,39.483 C358.405,40.844 360.205,41.523 362.485,41.523 C364.564,41.523 366.394,40.943 367.974,39.783 Z M355.405,42.153 C353.644,40.693 352.584,38.703 352.224,36.182 C352.105,35.463 352.044,34.663 352.044,33.783 C352.044,32.623 352.184,30.924 352.464,28.682 C352.825,25.644 353.325,23.163 353.964,21.243 C354.964,18.764 356.524,16.794 358.645,15.333 C360.764,13.873 363.205,13.143 365.964,13.143 C368.724,13.143 370.995,13.884 372.775,15.363 C374.554,16.844 375.604,18.804 375.924,21.243 C376.044,21.963 376.105,22.724 376.105,23.523 C376.105,24.723 375.964,26.443 375.684,28.682 C375.244,32.083 374.724,34.584 374.124,36.182 C373.165,38.664 371.614,40.644 369.474,42.123 C367.334,43.603 364.904,44.343 362.184,44.343 C359.424,44.343 357.165,43.613 355.405,42.153 L355.405,42.153 Z" id="Fill-15"></path>
            </g>
        </g>
    </g>
</svg>